<svg xmlns="http://www.w3.org/2000/svg" xmlns:xlink="http://www.w3.org/1999/xlink" xmlns:inkscape="http://www.inkscape.org/namespaces/inkscape" version="1.1" width="841.89" height="595.276" viewBox="0 0 841.89 595.276">
<defs>
<clipPath id="clip_1">
<path transform="matrix(1,0,0,-1,0,595.276)" d="M0 595.276H841.89V0H0Z"/>
</clipPath>
</defs>
<g inkscape:groupmode="layer" inkscape:label="Layer 1">
<path transform="matrix(1,0,0,-1,57.3208,394.75343)" d="M0 0H-4.473V22.975H2.551L6.736 4.76 10.867 22.975H17.801V0H13.328V19.31L9.017 0H4.311L0 19.741Z" fill="#231f20"/>
<g clip-path="url(#clip_1)">
<path transform="matrix(1,0,0,-1,88.8447,388.4662)" d="M0 0V1.939C-.527 1.652-1.215 1.419-2.065 1.239L-3.718 .934C-4.497 .79-5.089 .523-5.497 .135-5.904-.255-6.107-.749-6.107-1.348-6.107-2.03-5.925-2.563-5.559-2.946-5.194-3.329-4.688-3.521-4.042-3.521-2.593-3.521-1.443-3.018-.593-2.012-.425-1.809-.287-1.516-.18-1.132-.06-.749 0-.371 0 0M-5.389-6.718C-6.969-6.718-8.239-6.27-9.197-5.371-10.155-4.473-10.634-3.287-10.634-1.814-10.634-.27-10.2 .97-9.332 1.904-8.463 2.838-7.203 3.425-5.55 3.664L-2.586 4.077C-1.82 4.186-1.18 4.358-.665 4.599-.449 4.706-.281 4.897-.162 5.173-.066 5.377-.018 5.586-.018 5.802-.018 5.861-.024 5.928-.036 5.999-.096 6.479-.341 6.85-.772 7.113-1.275 7.437-2.006 7.598-2.964 7.598-3.826 7.598-4.497 7.392-4.976 6.979-5.455 6.565-5.706 5.976-5.73 5.209H-10.041C-9.945 7.196-9.266 8.688-8.002 9.682-6.739 10.676-4.892 11.173-2.461 11.173-.341 11.173 1.329 10.727 2.551 9.834 3.772 8.942 4.383 7.724 4.383 6.179V-3.323C4.383-4.078 4.446-4.61 4.572-4.922 4.697-5.233 4.952-5.473 5.335-5.641V-6.27H.485C.281-5.587 .15-4.916 .09-4.257L.072-4.222C-1.329-5.886-3.149-6.718-5.389-6.718" fill="#231f20"/>
<path transform="matrix(1,0,0,-1,104.9937,394.8432)" d="M0 0C-.754-.06-1.677-.09-2.766-.09-4.359-.09-5.5 .191-6.188 .755-6.877 1.317-7.221 2.245-7.221 3.539V13.957H-9.592V17.101H-7.221V21.663H-2.749V17.101H0V13.957H-2.749V4.293C-2.749 3.897-2.629 3.638-2.389 3.512-2.15 3.386-1.665 3.323-.934 3.323H0Z" fill="#231f20"/>
<path transform="matrix(1,0,0,-1,107.8311,394.75343)" d="M0 0V22.975H4.473V14.837L4.832 15.34C5.946 16.753 7.55 17.46 9.646 17.46 11.442 17.46 12.849 16.927 13.867 15.861 14.885 14.795 15.394 13.322 15.394 11.442V0H10.903V10.634C10.903 11.676 10.676 12.451 10.221 12.96 9.766 13.469 9.071 13.724 8.137 13.724 6.963 13.724 6.06 13.37 5.425 12.664 4.79 11.957 4.473 10.933 4.473 9.592V0Z" fill="#231f20"/>
<path transform="matrix(1,0,0,-1,136.8408,388.4662)" d="M0 0V1.939C-.527 1.652-1.215 1.419-2.065 1.239L-3.718 .934C-4.497 .79-5.089 .523-5.497 .135-5.904-.255-6.107-.749-6.107-1.348-6.107-2.03-5.925-2.563-5.559-2.946-5.194-3.329-4.688-3.521-4.042-3.521-2.593-3.521-1.443-3.018-.593-2.012-.425-1.809-.287-1.516-.18-1.132-.06-.749 0-.371 0 0M-5.389-6.718C-6.969-6.718-8.239-6.27-9.197-5.371-10.155-4.473-10.634-3.287-10.634-1.814-10.634-.27-10.2 .97-9.332 1.904-8.463 2.838-7.203 3.425-5.55 3.664L-2.586 4.077C-1.82 4.186-1.18 4.358-.665 4.599-.449 4.706-.281 4.897-.162 5.173-.066 5.377-.018 5.586-.018 5.802-.018 5.861-.024 5.928-.036 5.999-.096 6.479-.341 6.85-.772 7.113-1.275 7.437-2.006 7.598-2.964 7.598-3.826 7.598-4.497 7.392-4.976 6.979-5.455 6.565-5.706 5.976-5.73 5.209H-10.041C-9.945 7.196-9.266 8.688-8.002 9.682-6.739 10.676-4.892 11.173-2.461 11.173-.341 11.173 1.329 10.727 2.551 9.834 3.772 8.942 4.383 7.724 4.383 6.179V-3.323C4.383-4.078 4.446-4.61 4.572-4.922 4.697-5.233 4.952-5.473 5.335-5.641V-6.27H.485C.281-5.587 .15-4.916 .09-4.257L.072-4.222C-1.329-5.886-3.149-6.718-5.389-6.718" fill="#231f20"/>
<path transform="matrix(1,0,0,-1,152.6479,381.17329)" d="M0 0C-1.21 0-2.153-.462-2.829-1.384-3.506-2.306-3.844-3.587-3.844-5.228-3.844-6.832-3.506-8.083-2.829-8.981-2.153-9.88-1.216-10.329-.018-10.329 1.191-10.329 2.138-9.855 2.82-8.91 3.502-7.964 3.844-6.646 3.844-4.958 3.844-3.401 3.502-2.186 2.82-1.312 2.138-.437 1.197 0 0 0M-1.204-14.011C-3.371-14.011-5.123-13.218-6.458-11.631-7.793-10.045-8.46-7.952-8.46-5.354-8.46-2.575-7.772-.342-6.395 1.347-5.018 3.035-3.209 3.88-.97 3.88 .874 3.88 2.359 3.065 3.485 1.437 3.676 1.173 3.838 .903 3.97 .628V3.431H8.101V-20.244H3.61V-11.586C2.413-13.203 .82-14.011-1.167-14.011Z" fill="#231f20"/>
<path transform="matrix(1,0,0,-1,174.1851,388.4662)" d="M0 0V1.939C-.527 1.652-1.215 1.419-2.065 1.239L-3.718 .934C-4.497 .79-5.089 .523-5.497 .135-5.904-.255-6.107-.749-6.107-1.348-6.107-2.03-5.925-2.563-5.559-2.946-5.194-3.329-4.688-3.521-4.042-3.521-2.593-3.521-1.443-3.018-.593-2.012-.425-1.809-.287-1.516-.18-1.132-.06-.749 0-.371 0 0M-5.389-6.718C-6.969-6.718-8.239-6.27-9.197-5.371-10.155-4.473-10.634-3.287-10.634-1.814-10.634-.27-10.2 .97-9.332 1.904-8.463 2.838-7.203 3.425-5.55 3.664L-2.586 4.077C-1.82 4.186-1.18 4.358-.665 4.599-.449 4.706-.281 4.897-.162 5.173-.066 5.377-.018 5.586-.018 5.802-.018 5.861-.024 5.928-.036 5.999-.096 6.479-.341 6.85-.772 7.113-1.275 7.437-2.006 7.598-2.964 7.598-3.826 7.598-4.497 7.392-4.976 6.979-5.455 6.565-5.706 5.976-5.73 5.209H-10.041C-9.945 7.196-9.266 8.688-8.002 9.682-6.739 10.676-4.892 11.173-2.461 11.173-.341 11.173 1.329 10.727 2.551 9.834 3.772 8.942 4.383 7.724 4.383 6.179V-3.323C4.383-4.078 4.446-4.61 4.572-4.922 4.697-5.233 4.952-5.473 5.335-5.641V-6.27H.485C.281-5.587 .15-4.916 .09-4.257L.072-4.222C-1.329-5.886-3.149-6.718-5.389-6.718" fill="#231f20"/>
<path transform="matrix(1,0,0,-1,190.3335,394.8432)" d="M0 0C-.754-.06-1.677-.09-2.766-.09-4.359-.09-5.5 .191-6.188 .755-6.877 1.317-7.221 2.245-7.221 3.539V13.957H-9.592V17.101H-7.221V21.663H-2.749V17.101H0V13.957H-2.749V4.293C-2.749 3.897-2.629 3.638-2.389 3.512-2.15 3.386-1.665 3.323-.934 3.323H0Z" fill="#231f20"/>
<path transform="matrix(1,0,0,-1,211.6909,376.8989)" d="M0 0-3.036-9.232H3.072ZM-10.832-17.854-2.712 5.12H2.856L10.993-17.854H5.892L4.347-13.185H-4.365L-5.892-17.854Z" fill="#231f20"/>
<path transform="matrix(1,0,0,-1,0,595.276)" d="M225.54 223.497H230.013V200.52199H225.54Z" fill="#231f20"/>
<path transform="matrix(1,0,0,-1,243.9336,382.8442)" d="M0 0C0 .658-.272 1.186-.817 1.581-1.362 1.976-2.083 2.174-2.981 2.174-3.844 2.174-4.518 2.023-5.002 1.725-5.487 1.425-5.73 1.012-5.73 .485-5.73 .113-5.455-.21-4.904-.485-4.353-.748-3.389-1.036-2.012-1.347 .743-1.958 2.581-2.629 3.503-3.359 4.437-4.09 4.904-5.239 4.904-6.808 4.904-8.473 4.227-9.811 2.874-10.822 1.521-11.835-.257-12.34-2.461-12.34-5.071-12.34-7.083-11.841-8.496-10.841-9.909-9.841-10.664-8.383-10.759-6.467H-6.197C-6.161-7.245-5.814-7.855-5.155-8.299-4.497-8.742-3.599-8.963-2.461-8.963-1.562-8.963-.862-8.811-.359-8.505 .144-8.2 .396-7.771 .396-7.221 .396-6.838 .15-6.509-.341-6.233-.833-5.97-1.688-5.706-2.91-5.442-5.784-4.796-7.706-4.113-8.676-3.395-9.646-2.688-10.131-1.587-10.131-.09-10.131 1.599-9.502 2.961-8.245 3.997-6.987 5.032-5.335 5.551-3.287 5.551-.976 5.551 .889 5.041 2.308 4.023 3.728 3.006 4.437 1.664 4.437 0Z" fill="#231f20"/>
<path transform="matrix(1,0,0,-1,252.1064,394.75343)" d="M0 0V22.975H4.473V14.837L4.832 15.34C5.946 16.753 7.55 17.46 9.646 17.46 11.442 17.46 12.849 16.927 13.867 15.861 14.885 14.795 15.394 13.322 15.394 11.442V0H10.903V10.634C10.903 11.676 10.676 12.451 10.221 12.96 9.766 13.469 9.071 13.724 8.137 13.724 6.963 13.724 6.06 13.37 5.425 12.664 4.79 11.957 4.473 10.933 4.473 9.592V0Z" fill="#231f20"/>
<path transform="matrix(1,0,0,-1,281.1162,388.4662)" d="M0 0V1.939C-.527 1.652-1.215 1.419-2.065 1.239L-3.718 .934C-4.497 .79-5.089 .523-5.497 .135-5.904-.255-6.107-.749-6.107-1.348-6.107-2.03-5.925-2.563-5.559-2.946-5.194-3.329-4.688-3.521-4.042-3.521-2.593-3.521-1.443-3.018-.593-2.012-.425-1.809-.287-1.516-.18-1.132-.06-.749 0-.371 0 0M-5.389-6.718C-6.969-6.718-8.239-6.27-9.197-5.371-10.155-4.473-10.634-3.287-10.634-1.814-10.634-.27-10.2 .97-9.332 1.904-8.463 2.838-7.203 3.425-5.55 3.664L-2.586 4.077C-1.82 4.186-1.18 4.358-.665 4.599-.449 4.706-.281 4.897-.162 5.173-.066 5.377-.018 5.586-.018 5.802-.018 5.861-.024 5.928-.036 5.999-.096 6.479-.341 6.85-.772 7.113-1.275 7.437-2.006 7.598-2.964 7.598-3.826 7.598-4.497 7.392-4.976 6.979-5.455 6.565-5.706 5.976-5.73 5.209H-10.041C-9.945 7.196-9.266 8.688-8.002 9.682-6.739 10.676-4.892 11.173-2.461 11.173-.341 11.173 1.329 10.727 2.551 9.834 3.772 8.942 4.383 7.724 4.383 6.179V-3.323C4.383-4.078 4.446-4.61 4.572-4.922 4.697-5.233 4.952-5.473 5.335-5.641V-6.27H.485C.281-5.587 .15-4.916 .09-4.257L.072-4.222C-1.329-5.886-3.149-6.718-5.389-6.718" fill="#231f20"/>
<path transform="matrix(1,0,0,-1,289.415,394.75343)" d="M0 0V17.011H4.257V13.957C4.424 14.292 4.604 14.615 4.796 14.927 5.85 16.615 7.209 17.46 8.874 17.46L9.897 17.441V12.861C9.502 12.897 9.053 12.915 8.55 12.915 7.185 12.915 6.167 12.576 5.497 11.9 4.826 11.224 4.491 10.203 4.491 8.838V0Z" fill="#231f20"/>
<path transform="matrix(1,0,0,-1,309.3711,381.17329)" d="M0 0C-1.21 0-2.153-.462-2.829-1.384-3.506-2.306-3.844-3.587-3.844-5.228-3.844-6.832-3.506-8.083-2.829-8.981-2.153-9.88-1.216-10.329-.018-10.329 1.191-10.329 2.138-9.855 2.82-8.91 3.502-7.964 3.844-6.646 3.844-4.958 3.844-3.401 3.502-2.186 2.82-1.312 2.138-.437 1.197 0 0 0M-1.204-14.011C-3.371-14.011-5.123-13.218-6.458-11.631-7.793-10.045-8.46-7.952-8.46-5.354-8.46-2.575-7.772-.342-6.395 1.347-5.018 3.035-3.209 3.88-.97 3.88 .874 3.88 2.359 3.065 3.485 1.437 3.676 1.173 3.838 .903 3.97 .628V3.431H8.101V-20.244H3.61V-11.586C2.413-13.203 .82-14.011-1.167-14.011Z" fill="#231f20"/>
<path transform="matrix(1,0,0,-1,340.8057,395.3823)" d="M0 0C-3.353 0-6.012 1.078-7.975 3.233-9.939 5.389-10.921 8.305-10.921 11.981-10.921 15.741-9.9 18.723-7.858 20.927-5.817 23.13-3.054 24.231 .431 24.231 3.221 24.231 5.521 23.534 7.329 22.139 9.137 20.744 10.191 18.854 10.49 16.472H5.676C5.556 17.478 4.997 18.358 3.997 19.112 2.997 19.867 1.892 20.244 .683 20.244-1.401 20.244-3.033 19.522-4.212 18.079-5.392 16.637-5.981 14.634-5.981 12.071-5.981 9.46-5.416 7.476-4.284 6.116-3.152 4.757-1.497 4.078 .683 4.078H.665C2.521 4.078 3.97 4.79 5.012 6.215 5.586 7.018 6.005 7.958 6.269 9.035V9.089H.862V13.041H10.49V.646H7.293L6.826 3.61 6.539 3.233C4.922 1.078 2.736 0-.018 0Z" fill="#231f20"/>
<path transform="matrix(1,0,0,-1,365.6118,384.49653)" d="M0 0C-.096 1.018-.365 1.814-.808 2.389-1.383 3.144-2.275 3.521-3.485 3.521-4.634 3.521-5.515 3.077-6.125 2.191-6.497 1.628-6.766 .898-6.934 0ZM-3.413-10.688C-6-10.688-7.993-9.892-9.395-8.299-10.795-6.706-11.496-4.437-11.496-1.491-11.496 1.228-10.784 3.355-9.358 4.895-7.934 6.434-5.952 7.203-3.413 7.203-.826 7.203 1.167 6.418 2.569 4.85 3.97 3.281 4.67 1.048 4.67-1.851 4.682-1.935 4.688-2.019 4.688-2.102 4.688-2.354 4.658-2.604 4.599-2.856H-6.987C-6.879-4.21-6.581-5.216-6.089-5.874-5.467-6.712-4.425-7.131-2.964-7.131-2.293-7.131-1.667-6.939-1.086-6.557-.506-6.174-.156-5.706-.036-5.155H4.527C4.131-6.892 3.233-8.248 1.832-9.224 .431-10.2-1.317-10.688-3.413-10.688" fill="#231f20"/>
<path transform="matrix(1,0,0,-1,373.2637,394.75343)" d="M0 0V17.011H4.257V14.478C4.437 14.789 4.628 15.076 4.832 15.34 5.946 16.753 7.55 17.46 9.646 17.46 11.442 17.46 12.849 16.927 13.868 15.861 14.886 14.795 15.394 13.322 15.394 11.442V0H10.903V10.634C10.903 11.676 10.677 12.451 10.222 12.96 9.765 13.469 9.071 13.724 8.138 13.724 6.964 13.724 6.06 13.37 5.425 12.664 4.79 11.957 4.473 10.933 4.473 9.592V0Z" fill="#231f20"/>
<path transform="matrix(1,0,0,-1,402.9561,384.49653)" d="M0 0C-.096 1.018-.365 1.814-.809 2.389-1.383 3.144-2.275 3.521-3.484 3.521-4.634 3.521-5.515 3.077-6.125 2.191-6.496 1.628-6.766 .898-6.934 0ZM-3.413-10.688C-5.999-10.688-7.993-9.892-9.395-8.299-10.796-6.706-11.496-4.437-11.496-1.491-11.496 1.228-10.783 3.355-9.358 4.895-7.934 6.434-5.952 7.203-3.413 7.203-.826 7.203 1.168 6.418 2.568 4.85 3.97 3.281 4.67 1.048 4.67-1.851 4.682-1.935 4.688-2.019 4.688-2.102 4.688-2.354 4.658-2.604 4.599-2.856H-6.987C-6.88-4.21-6.58-5.216-6.089-5.874-5.467-6.712-4.425-7.131-2.964-7.131-2.293-7.131-1.668-6.939-1.087-6.557-.506-6.174-.155-5.706-.036-5.155H4.526C4.132-6.892 3.233-8.248 1.832-9.224 .432-10.2-1.317-10.688-3.413-10.688" fill="#231f20"/>
<path transform="matrix(1,0,0,-1,410.5723,394.75343)" d="M0 0V17.011H4.257V13.957C4.425 14.292 4.604 14.615 4.796 14.927 5.85 16.615 7.209 17.46 8.873 17.46L9.897 17.441V12.861C9.502 12.897 9.053 12.915 8.55 12.915 7.185 12.915 6.167 12.576 5.496 11.9 4.825 11.224 4.49 10.203 4.49 8.838V0Z" fill="#231f20"/>
<path transform="matrix(1,0,0,-1,432.5225,388.4662)" d="M0 0V1.939C-.527 1.652-1.216 1.419-2.065 1.239L-3.718 .934C-4.497 .79-5.09 .523-5.496 .135-5.903-.255-6.107-.749-6.107-1.348-6.107-2.03-5.925-2.563-5.56-2.946-5.194-3.329-4.688-3.521-4.041-3.521-2.593-3.521-1.443-3.018-.593-2.012-.425-1.809-.287-1.516-.18-1.132-.06-.749 0-.371 0 0M-5.389-6.718C-6.97-6.718-8.239-6.27-9.196-5.371-10.155-4.473-10.634-3.287-10.634-1.814-10.634-.27-10.2 .97-9.331 1.904-8.463 2.838-7.203 3.425-5.551 3.664L-2.587 4.077C-1.82 4.186-1.18 4.358-.664 4.599-.449 4.706-.281 4.897-.161 5.173-.065 5.377-.018 5.586-.018 5.802-.018 5.861-.024 5.928-.036 5.999-.096 6.479-.341 6.85-.772 7.113-1.275 7.437-2.006 7.598-2.964 7.598-3.826 7.598-4.497 7.392-4.976 6.979-5.455 6.565-5.706 5.976-5.729 5.209H-10.041C-9.945 7.196-9.266 8.688-8.002 9.682-6.739 10.676-4.892 11.173-2.461 11.173-.341 11.173 1.329 10.727 2.551 9.834 3.772 8.942 4.383 7.724 4.383 6.179V-3.323C4.383-4.078 4.446-4.61 4.571-4.922 4.697-5.233 4.951-5.473 5.335-5.641V-6.27H.485C.281-5.587 .149-4.916 .09-4.257L.072-4.222C-1.329-5.886-3.149-6.718-5.389-6.718" fill="#231f20"/>
<path transform="matrix(1,0,0,-1,0,595.276)" d="M440.982 223.497H445.455V200.52199H440.982Z" fill="#231f20"/>
<path transform="matrix(1,0,0,-1,478.6865,386.70649)" d="M0 0C-.287-2.658-1.326-4.769-3.116-6.331-4.907-7.895-7.18-8.676-9.934-8.676-13.167-8.676-15.735-7.598-17.64-5.442-19.543-3.287-20.495-.371-20.495 3.306-20.495 7.065-19.543 10.047-17.64 12.251-15.735 14.454-13.167 15.556-9.934 15.556-7.215 15.556-4.958 14.816-3.161 13.338-1.365 11.858-.312 9.862 0 7.347H-4.814C-4.97 8.58-5.503 9.563-6.413 10.293-7.323 11.023-8.484 11.389-9.897 11.389-11.682 11.389-13.077 10.679-14.083 9.26-15.089 7.841-15.592 5.868-15.592 3.342-15.592 .887-15.089-1.035-14.083-2.425-13.077-3.813-11.682-4.508-9.897-4.508-8.484-4.508-7.323-4.104-6.413-3.296-5.503-2.487-4.97-1.389-4.814 0Z" fill="#231f20"/>
<path transform="matrix(1,0,0,-1,489.6973,391.4487)" d="M0 0C1.329 0 2.344 .44 3.044 1.32 3.745 2.201 4.095 3.479 4.095 5.155 4.095 6.868 3.745 8.17 3.044 9.063 2.344 9.954 1.329 10.4 0 10.4-1.342 10.4-2.356 9.954-3.045 9.063-3.733 8.17-4.078 6.868-4.078 5.155-4.078 3.479-3.733 2.201-3.045 1.32-2.356 .44-1.342 0 0 0M0-3.735C-2.659-3.735-4.772-2.939-6.341-1.347-7.91 .246-8.694 2.396-8.694 5.102-8.694 7.868-7.91 10.068-6.341 11.703-4.772 13.338-2.659 14.155 0 14.155 2.67 14.155 4.786 13.338 6.35 11.703 7.912 10.068 8.693 7.868 8.693 5.102 8.693 2.396 7.912 .246 6.35-1.347 4.786-2.939 2.67-3.735 0-3.735" fill="#231f20"/>
<path transform="matrix(1,0,0,-1,501.5352,394.75343)" d="M0 0V17.011H4.257V14.478C4.437 14.789 4.628 15.076 4.832 15.34 5.945 16.753 7.55 17.46 9.646 17.46 11.441 17.46 12.849 16.927 13.867 15.861 14.885 14.795 15.394 13.322 15.394 11.442V0H10.903V10.634C10.903 11.676 10.676 12.451 10.221 12.96 9.765 13.469 9.07 13.724 8.137 13.724 6.963 13.724 6.059 13.37 5.425 12.664 4.789 11.957 4.473 10.933 4.473 9.592V0Z" fill="#231f20"/>
<path transform="matrix(1,0,0,-1,528.8916,394.8432)" d="M0 0C-.755-.06-1.677-.09-2.767-.09-4.359-.09-5.5 .191-6.188 .755-6.877 1.317-7.221 2.245-7.221 3.539V13.957H-9.592V17.101H-7.221V21.663H-2.748V17.101H0V13.957H-2.748V4.293C-2.748 3.897-2.629 3.638-2.389 3.512-2.149 3.386-1.665 3.323-.935 3.323H0Z" fill="#231f20"/>
<path transform="matrix(1,0,0,-1,531.6934,394.75343)" d="M0 0V17.011H4.257V13.957C4.425 14.292 4.604 14.615 4.796 14.927 5.85 16.615 7.209 17.46 8.873 17.46L9.897 17.441V12.861C9.502 12.897 9.053 12.915 8.55 12.915 7.185 12.915 6.167 12.576 5.496 11.9 4.825 11.224 4.49 10.203 4.49 8.838V0Z" fill="#231f20"/>
<path transform="matrix(1,0,0,-1,553.6436,388.4662)" d="M0 0V1.939C-.527 1.652-1.216 1.419-2.065 1.239L-3.718 .934C-4.497 .79-5.09 .523-5.496 .135-5.903-.255-6.107-.749-6.107-1.348-6.107-2.03-5.925-2.563-5.56-2.946-5.194-3.329-4.688-3.521-4.041-3.521-2.593-3.521-1.443-3.018-.593-2.012-.425-1.809-.287-1.516-.18-1.132-.06-.749 0-.371 0 0M-5.389-6.718C-6.97-6.718-8.239-6.27-9.196-5.371-10.155-4.473-10.634-3.287-10.634-1.814-10.634-.27-10.2 .97-9.331 1.904-8.463 2.838-7.203 3.425-5.551 3.664L-2.587 4.077C-1.82 4.186-1.18 4.358-.664 4.599-.449 4.706-.281 4.897-.161 5.173-.065 5.377-.018 5.586-.018 5.802-.018 5.861-.024 5.928-.036 5.999-.096 6.479-.341 6.85-.772 7.113-1.275 7.437-2.006 7.598-2.964 7.598-3.826 7.598-4.497 7.392-4.976 6.979-5.455 6.565-5.706 5.976-5.729 5.209H-10.041C-9.945 7.196-9.266 8.688-8.002 9.682-6.739 10.676-4.892 11.173-2.461 11.173-.341 11.173 1.329 10.727 2.551 9.834 3.772 8.942 4.383 7.724 4.383 6.179V-3.323C4.383-4.078 4.446-4.61 4.571-4.922 4.697-5.233 4.951-5.473 5.335-5.641V-6.27H.485C.281-5.587 .149-4.916 .09-4.257L.072-4.222C-1.329-5.886-3.149-6.718-5.389-6.718" fill="#231f20"/>
<path transform="matrix(1,0,0,-1,576.6719,388.4487)" d="M0 0C-.24-2.119-1.03-3.771-2.371-4.957-3.713-6.143-5.461-6.735-7.616-6.735-10.191-6.735-12.179-5.973-13.58-4.445-14.981-2.919-15.682-.736-15.682 2.102-15.682 4.868-14.954 7.068-13.499 8.703-12.044 10.338-10.083 11.155-7.616 11.155-5.425 11.155-3.632 10.55-2.236 9.341-.842 8.131-.097 6.545 0 4.581H-4.581C-4.617 5.419-4.913 6.099-5.47 6.619-6.026 7.141-6.742 7.4-7.616 7.4-8.742 7.4-9.599 6.948-10.186 6.045-10.771 5.141-11.065 3.826-11.065 2.102-11.065 .413-10.771-.871-10.186-1.751-9.599-2.631-8.742-3.071-7.616-3.071-6.802-3.071-6.113-2.79-5.551-2.228-4.988-1.664-4.665-.922-4.581 0Z" fill="#231f20"/>
<path transform="matrix(1,0,0,-1,587.5928,394.8432)" d="M0 0C-.755-.06-1.677-.09-2.767-.09-4.359-.09-5.5 .191-6.188 .755-6.877 1.317-7.221 2.245-7.221 3.539V13.957H-9.592V17.101H-7.221V21.663H-2.748V17.101H0V13.957H-2.748V4.293C-2.748 3.897-2.629 3.638-2.389 3.512-2.149 3.386-1.665 3.323-.935 3.323H0Z" fill="#231f20"/>
<path transform="matrix(1,0,0,-1,0,595.276)" d="M590.593 217.533H595.08407V200.522H590.593ZM590.557 223.658H595.119V219.509H590.557Z" fill="#231f20"/>
<path transform="matrix(1,0,0,-1,599.3232,394.75343)" d="M0 0V17.011H4.257V14.478C4.437 14.789 4.628 15.076 4.832 15.34 5.945 16.753 7.55 17.46 9.646 17.46 11.441 17.46 12.849 16.927 13.867 15.861 14.885 14.795 15.394 13.322 15.394 11.442V0H10.903V10.634C10.903 11.676 10.676 12.451 10.221 12.96 9.765 13.469 9.07 13.724 8.137 13.724 6.963 13.724 6.059 13.37 5.425 12.664 4.789 11.957 4.473 10.933 4.473 9.592V0Z" fill="#231f20"/>
<path transform="matrix(1,0,0,-1,626.3926,381.17329)" d="M0 0C-1.162 0-2.072-.446-2.73-1.339-3.39-2.23-3.719-3.467-3.719-5.048-3.719-6.604-3.39-7.817-2.73-8.686-2.072-9.554-1.168-9.987-.019-9.987 1.155-9.987 2.074-9.545 2.739-8.658 3.403-7.772 3.735-6.551 3.735-4.994 3.735-3.426 3.403-2.201 2.739-1.32 2.074-.44 1.161 0 0 0M.144-17.119C1.4-17.119 2.305-16.813 2.855-16.202 3.406-15.592 3.682-14.58 3.682-13.167V-11.083L3.322-11.622C2.341-12.987 .922-13.67-.935-13.67-3.15-13.67-4.937-12.877-6.296-11.29-7.655-9.703-8.335-7.604-8.335-4.994-8.335-2.336-7.674-.192-6.351 1.437-5.027 3.065-3.287 3.88-1.132 3.88 .784 3.88 2.263 3.185 3.305 1.796 3.508 1.532 3.693 1.245 3.861 .934V3.431H8.083V-12.682C8.083-15.364 7.418-17.343 6.089-18.618 4.76-19.894 2.688-20.531-.126-20.531-2.438-20.531-4.275-20.082-5.641-19.185-7.006-18.286-7.736-17.041-7.832-15.448H-2.946C-2.91-16.022-2.644-16.445-2.146-16.715-1.65-16.984-.887-17.119 .144-17.119" fill="#231f20"/>
<path transform="matrix(1,0,0,-1,667.3467,386.70649)" d="M0 0C-.287-2.658-1.326-4.769-3.116-6.331-4.907-7.895-7.18-8.676-9.934-8.676-13.167-8.676-15.735-7.598-17.64-5.442-19.543-3.287-20.495-.371-20.495 3.306-20.495 7.065-19.543 10.047-17.64 12.251-15.735 14.454-13.167 15.556-9.934 15.556-7.215 15.556-4.958 14.816-3.161 13.338-1.365 11.858-.312 9.862 0 7.347H-4.814C-4.97 8.58-5.503 9.563-6.413 10.293-7.323 11.023-8.484 11.389-9.897 11.389-11.682 11.389-13.077 10.679-14.083 9.26-15.089 7.841-15.592 5.868-15.592 3.342-15.592 .887-15.089-1.035-14.083-2.425-13.077-3.813-11.682-4.508-9.897-4.508-8.484-4.508-7.323-4.104-6.413-3.296-5.503-2.487-4.97-1.389-4.814 0Z" fill="#231f20"/>
<path transform="matrix(1,0,0,-1,678.3584,391.4487)" d="M0 0C1.329 0 2.344 .44 3.044 1.32 3.745 2.201 4.095 3.479 4.095 5.155 4.095 6.868 3.745 8.17 3.044 9.063 2.344 9.954 1.329 10.4 0 10.4-1.342 10.4-2.356 9.954-3.045 9.063-3.733 8.17-4.078 6.868-4.078 5.155-4.078 3.479-3.733 2.201-3.045 1.32-2.356 .44-1.342 0 0 0M0-3.735C-2.659-3.735-4.772-2.939-6.341-1.347-7.91 .246-8.694 2.396-8.694 5.102-8.694 7.868-7.91 10.068-6.341 11.703-4.772 13.338-2.659 14.155 0 14.155 2.67 14.155 4.786 13.338 6.35 11.703 7.912 10.068 8.693 7.868 8.693 5.102 8.693 2.396 7.912 .246 6.35-1.347 4.786-2.939 2.67-3.735 0-3.735" fill="#231f20"/>
<path transform="matrix(1,0,0,-1,690.1592,394.75343)" d="M0 0V17.011H4.257V14.263C4.461 14.741 4.712 15.172 5.012 15.556 6.005 16.825 7.442 17.46 9.322 17.46 10.831 17.46 12.064 16.95 13.022 15.933 13.394 15.55 13.688 15.124 13.903 14.657L14.46 15.556C15.382 16.825 16.729 17.46 18.501 17.46 20.346 17.46 21.788 16.912 22.83 15.816 23.872 14.721 24.393 13.202 24.393 11.263V0H19.902V9.987C19.902 11.257 19.696 12.196 19.282 12.808 18.869 13.418 18.226 13.724 17.352 13.724 16.405 13.724 15.688 13.433 15.196 12.853 14.705 12.271 14.46 11.442 14.46 10.364V0H9.969V10.724C9.969 11.741 9.75 12.496 9.313 12.987 8.876 13.478 8.202 13.724 7.293 13.724 6.395 13.724 5.703 13.433 5.218 12.853 4.733 12.271 4.49 11.442 4.49 10.364V0Z" fill="#231f20"/>
<path transform="matrix(1,0,0,-1,726.6055,391.50239)" d="M0 0C1.197 0 2.138 .449 2.82 1.348 3.503 2.246 3.844 3.497 3.844 5.102 3.844 6.742 3.506 8.023 2.829 8.945 2.152 9.867 1.215 10.329 .018 10.329-1.18 10.329-2.113 9.855-2.784 8.91-3.455 7.964-3.79 6.646-3.79 4.958-3.79 3.401-3.455 2.186-2.784 1.312-2.113 .437-1.186 0 0 0M-8.065 13.76H-3.79V11.227L-3.484 11.658C-2.287 13.358-.694 14.209 1.293 14.209 3.449 14.209 5.179 13.412 6.484 11.819 7.79 10.227 8.442 8.125 8.442 5.515 8.442 2.761 7.79 .539 6.484-1.149 5.179-2.838 3.449-3.682 1.293-3.682-.683-3.682-2.275-2.892-3.484-1.311L-3.574-1.186V-9.915H-8.065Z" fill="#231f20"/>
<path transform="matrix(1,0,0,-1,747.6572,388.4662)" d="M0 0V1.939C-.527 1.652-1.216 1.419-2.065 1.239L-3.718 .934C-4.497 .79-5.09 .523-5.496 .135-5.903-.255-6.107-.749-6.107-1.348-6.107-2.03-5.925-2.563-5.56-2.946-5.194-3.329-4.688-3.521-4.041-3.521-2.593-3.521-1.443-3.018-.593-2.012-.425-1.809-.287-1.516-.18-1.132-.06-.749 0-.371 0 0M-5.389-6.718C-6.97-6.718-8.239-6.27-9.196-5.371-10.155-4.473-10.634-3.287-10.634-1.814-10.634-.27-10.2 .97-9.331 1.904-8.463 2.838-7.203 3.425-5.551 3.664L-2.587 4.077C-1.82 4.186-1.18 4.358-.664 4.599-.449 4.706-.281 4.897-.161 5.173-.065 5.377-.018 5.586-.018 5.802-.018 5.861-.024 5.928-.036 5.999-.096 6.479-.341 6.85-.772 7.113-1.275 7.437-2.006 7.598-2.964 7.598-3.826 7.598-4.497 7.392-4.976 6.979-5.455 6.565-5.706 5.976-5.729 5.209H-10.041C-9.945 7.196-9.266 8.688-8.002 9.682-6.739 10.676-4.892 11.173-2.461 11.173-.341 11.173 1.329 10.727 2.551 9.834 3.772 8.942 4.383 7.724 4.383 6.179V-3.323C4.383-4.078 4.446-4.61 4.571-4.922 4.697-5.233 4.951-5.473 5.335-5.641V-6.27H.485C.281-5.587 .149-4.916 .09-4.257L.072-4.222C-1.329-5.886-3.149-6.718-5.389-6.718" fill="#231f20"/>
<path transform="matrix(1,0,0,-1,755.9922,394.75343)" d="M0 0V17.011H4.257V14.478C4.437 14.789 4.628 15.076 4.832 15.34 5.945 16.753 7.55 17.46 9.646 17.46 11.441 17.46 12.849 16.927 13.867 15.861 14.885 14.795 15.394 13.322 15.394 11.442V0H10.903V10.634C10.903 11.676 10.676 12.451 10.221 12.96 9.765 13.469 9.07 13.724 8.137 13.724 6.963 13.724 6.059 13.37 5.425 12.664 4.789 11.957 4.473 10.933 4.473 9.592V0Z" fill="#231f20"/>
<path transform="matrix(1,0,0,-1,790.6953,377.7426)" d="M0 0-6.09-17.37C-7.071-20.231-7.91-22.028-8.604-22.759-9.299-23.489-10.544-23.854-12.341-23.854L-14.478-23.801V-20.208C-14.37-20.256-14.083-20.28-13.615-20.28-12.418-20.28-11.64-20.034-11.28-19.543-11.054-19.232-10.819-18.586-10.58-17.604L-16.938 0H-11.981L-8.281-12.628-4.688 0Z" fill="#231f20"/>
<path transform="matrix(1,0,0,-1,65.147,324.3168)" d="M0 0C0 .413 .081 .804 .243 1.173 .405 1.541 .626 1.865 .907 2.146 1.187 2.426 1.507 2.644 1.869 2.798 2.23 2.953 2.61 3.03 3.008 3.03 3.406 3.03 3.79 2.953 4.158 2.798 4.526 2.644 4.851 2.426 5.131 2.146 5.411 1.865 5.629 1.541 5.784 1.173 5.938 .804 6.016 .413 6.016 0 6.016-.428 5.938-.822 5.784-1.183 5.629-1.545 5.411-1.857 5.131-2.123 4.851-2.389 4.526-2.599 4.158-2.753 3.79-2.908 3.406-2.985 3.008-2.985 2.61-2.985 2.23-2.908 1.869-2.753 1.507-2.599 1.187-2.389 .907-2.123 .626-1.857 .405-1.545 .243-1.183 .081-.822 0-.428 0 0M3.185-11.722C3.082-11.31 2.964-11.073 2.831-11.015 2.079-10.69 1.194-10.527 .177-10.527H.11C-1.512-10.527-2.75-10.985-3.605-11.899-4.608-12.961-5.109-14.583-5.109-16.765-5.109-19.463-4.284-21.284-2.632-22.228-2.131-22.522-1.585-22.685-.995-22.714-.893-22.729-.804-22.736-.73-22.736-.273-22.736 .177-22.648 .619-22.471 2.079-21.896 2.934-20.724 3.185-18.954ZM-7.078 0C-7.078 .413-6.997 .804-6.834 1.173-6.672 1.541-6.451 1.865-6.171 2.146-5.891 2.426-5.57 2.644-5.209 2.798-4.848 2.953-4.468 3.03-4.07 3.03-3.671 3.03-3.288 2.953-2.919 2.798-2.551 2.644-2.227 2.426-1.946 2.146-1.667 1.865-1.449 1.541-1.294 1.173-1.139 .804-1.062 .413-1.062 0-1.062-.428-1.139-.822-1.294-1.183-1.449-1.545-1.667-1.857-1.946-2.123-2.227-2.389-2.551-2.599-2.919-2.753-3.288-2.908-3.671-2.985-4.07-2.985-4.468-2.985-4.848-2.908-5.209-2.753-5.57-2.599-5.891-2.389-6.171-2.123-6.451-1.857-6.672-1.545-6.834-1.183-6.997-.822-7.078-.428-7.078 0M14.664-28.753C10.609-28.753 7.638-27.772 5.75-25.811 5.382-26.533 4.645-27.234 3.539-27.912 2.167-28.458 .737-28.73-.752-28.73-1.018-28.73-1.283-28.723-1.548-28.708-3.362-28.591-5.028-28.089-6.547-27.204-10.233-25.066-12.076-21.586-12.076-16.765-12.076-13.152-11.059-10.263-9.024-8.095-6.783-5.735-3.738-4.549 .11-4.534H.177C2.344-4.534 4.291-4.917 6.016-5.684 8.773-6.878 10.152-8.67 10.152-11.059V-19.064C10.152-20.348 10.461-21.307 11.081-21.94 11.597-22.471 12.792-22.736 14.664-22.736Z" fill="#231f20"/>
<path transform="matrix(1,0,0,-1,99.1865,336.1938)" d="M0 0C-.841 .899-2.087 1.35-3.738 1.35-5.36 1.35-6.591 .899-7.432 0-8.449-1.076-8.958-2.706-8.958-4.888-8.958-6.834-8.442-8.338-7.41-9.399-6.466-10.373-5.25-10.859-3.76-10.859-2.197-10.859-.959-10.388-.044-9.444 .988-8.382 1.504-6.864 1.504-4.888 1.504-2.676 1.002-1.047 0 0M-15.925-4.888C-15.925-1.261-14.908 1.629-12.873 3.782-10.617 6.171-7.572 7.365-3.738 7.365 .125 7.365 3.177 6.178 5.419 3.805 7.454 1.651 8.471-1.246 8.471-4.888 8.471-8.338 7.409-11.147 5.286-13.314 2.986-15.688-.03-16.876-3.76-16.876-7.461-16.876-10.101-16.035-11.678-14.354-13.462-16.035-16.397-16.876-20.481-16.876V-10.859C-18.564-10.859-17.355-10.602-16.854-10.085-16.234-9.451-15.925-8.485-15.925-7.187Z" fill="#231f20"/>
<path transform="matrix(1,0,0,-1,119.4902,324.4047)" d="M0 0V-20.193C0-20.96 .25-21.587 .752-22.073 1.135-22.457 1.541-22.648 1.969-22.648H3.517V-28.665H1.969C-.597-28.665-2.757-27.78-4.512-26.011-6.148-24.389-6.967-22.449-6.967-20.193V0Z" fill="#231f20"/>
<path transform="matrix(1,0,0,-1,135.791,347.00923)" d="M0 0C.369 .147 .885 .479 1.548 .995 3.17 2.278 4.276 4.018 4.866 6.216 5.146 7.218 5.286 8.124 5.286 8.936 5.286 9.894 5.087 10.624 4.689 11.125 4.409 11.523 3.966 11.796 3.362 11.943 2.846 12.091 2.256 12.165 1.593 12.165H-1.592C-2.256 12.165-2.831 12.099-3.317 11.966-3.937 11.803-4.387 11.523-4.667 11.125-5.065 10.624-5.264 9.894-5.264 8.936-5.264 8.124-5.124 7.218-4.844 6.216-4.254 4.018-3.148 2.278-1.526 .995-.862 .479-.354 .147 0 0M-13.89-6.061V-.044H-10.042C-10.263 .162-10.793 1.784-11.634 4.822-12.047 6.325-12.253 7.697-12.253 8.936-12.253 11.117-11.664 12.968-10.484 14.487-9.29 16.021-7.623 17.082-5.485 17.672-4.291 18.011-2.994 18.181-1.592 18.181H1.593C3.008 18.181 4.313 18.011 5.507 17.672 7.645 17.082 9.304 16.021 10.484 14.487 11.664 12.968 12.253 11.117 12.253 8.936 12.253 7.697 12.054 6.333 11.656 4.844 10.815 1.792 10.285 .162 10.063-.044H14.023V-6.061Z" fill="#231f20"/>
<path transform="matrix(1,0,0,-1,159.5454,324.4047)" d="M0 0V-20.193C0-22.449-.818-24.389-2.455-26.011-4.21-27.78-6.37-28.665-8.936-28.665H-10.837V-22.648H-8.936C-8.508-22.648-8.103-22.457-7.719-22.073-7.218-21.587-6.967-20.96-6.967-20.193V0Z" fill="#231f20"/>
<path transform="matrix(1,0,0,-1,0,595.276)" d="M171.378 243.666H164.41101V270.871H171.378Z" fill="#231f20"/>
<path transform="matrix(1,0,0,-1,206.3247,333.5834)" d="M0 0C0 .412 .081 .803 .243 1.172 .405 1.54 .626 1.865 .907 2.146 1.187 2.425 1.507 2.643 1.869 2.798 2.23 2.952 2.61 3.029 3.008 3.029 3.406 3.029 3.79 2.952 4.158 2.798 4.526 2.643 4.851 2.425 5.131 2.146 5.411 1.865 5.629 1.54 5.784 1.172 5.938 .803 6.016 .412 6.016 0 6.016-.429 5.938-.822 5.784-1.184 5.629-1.545 5.411-1.858 5.131-2.124 4.851-2.389 4.526-2.6 4.158-2.754 3.79-2.909 3.406-2.986 3.008-2.986 2.61-2.986 2.23-2.909 1.869-2.754 1.507-2.6 1.187-2.389 .907-2.124 .626-1.858 .405-1.545 .243-1.184 .081-.822 0-.429 0 0M-7.078 0C-7.078 .412-6.997 .803-6.834 1.172-6.672 1.54-6.451 1.865-6.171 2.146-5.891 2.425-5.57 2.643-5.209 2.798-4.848 2.952-4.468 3.029-4.07 3.029-3.671 3.029-3.289 2.952-2.919 2.798-2.551 2.643-2.227 2.425-1.946 2.146-1.667 1.865-1.449 1.54-1.294 1.172-1.139 .803-1.062 .412-1.062 0-1.062-.429-1.139-.822-1.294-1.184-1.449-1.545-1.667-1.858-1.946-2.124-2.227-2.389-2.551-2.6-2.919-2.754-3.289-2.909-3.671-2.986-4.07-2.986-4.468-2.986-4.848-2.909-5.209-2.754-5.57-2.6-5.891-2.389-6.171-2.124-6.451-1.858-6.672-1.545-6.834-1.184-6.997-.822-7.078-.429-7.078 0M-12.408-5.641C-12.497-6.112-12.541-6.65-12.541-7.255-12.541-9.438-12.04-11.059-11.037-12.121-10.182-13.021-8.943-13.47-7.321-13.47H4.954C6.576-13.47 7.815-13.021 8.67-12.121 9.673-11.059 10.174-9.438 10.174-7.255V.773H17.141V-7.255C17.141-10.867 16.124-13.758 14.089-15.925 11.848-18.299 8.803-19.486 4.954-19.486H-6.658C-10.506-19.486-13.551-18.299-15.792-15.925-17.827-13.758-18.844-10.867-18.844-7.255-18.844-6.385-18.771-5.53-18.623-4.689-18.476-3.834-18.056-2.604-17.362-.996L-11.347-2.699C-11.966-4.174-12.32-5.154-12.408-5.641" fill="#231f20"/>
<path transform="matrix(1,0,0,-1,241.8457,347.05323)" d="M0 0C.501 0 .943 .214 1.327 .642 1.755 1.143 1.969 1.747 1.969 2.455V22.648H8.936V2.455C8.936 .11 8.051-1.895 6.282-3.562 4.542-5.198 2.448-6.017 0-6.017H-15.394V0C-13.919 0-12.991 .184-12.607 .553-12.121 1.054-11.877 1.688-11.877 2.455V22.648H-4.888V0Z" fill="#231f20"/>
<path transform="matrix(1,0,0,-1,270.9087,336.0385)" d="M0 0C0 .412-.118 .648-.354 .707-1.106 1.031-1.991 1.194-3.008 1.194H-3.075C-4.697 1.194-5.935 .736-6.791-.178-7.793-1.239-8.294-2.861-8.294-5.043-8.294-6.989-7.778-8.493-6.746-9.555-5.803-10.528-4.07-11.015-1.548-11.015V-11.037H0ZM-2.411-19.796C-1.807-19.073-1.349-18.424-1.04-17.85L-.575-17.031H-3.097C-6.798-17.031-9.798-15.829-12.099-13.426-14.208-11.243-15.261-8.449-15.261-5.043-15.261-1.431-14.244 1.459-12.209 3.627-9.968 5.986-6.923 7.173-3.075 7.187H-3.008C-.841 7.187 1.106 6.805 2.831 6.038 5.588 4.844 6.967 3.052 6.967 .663V-12.298C6.967-15.306 6.251-18.004 4.821-20.393 4.32-21.336 3.649-22.317 2.809-23.334 2.042-24.248 .826-25.473-.841-27.006L-5.994-23.356C-4.195-21.705-3.001-20.518-2.411-19.796" fill="#231f20"/>
<path transform="matrix(1,0,0,-1,289.7085,324.4047)" d="M0 0V-20.193C0-20.96 .25-21.587 .752-22.073 1.135-22.457 1.541-22.648 1.969-22.648H3.517V-28.665H1.969C-.597-28.665-2.757-27.78-4.512-26.011-6.148-24.389-6.967-22.449-6.967-20.193V0Z" fill="#231f20"/>
<path transform="matrix(1,0,0,-1,306.1421,324.8471)" d="M0 0C0 .412 .081 .804 .243 1.172 .405 1.54 .626 1.865 .907 2.146 1.187 2.425 1.507 2.643 1.869 2.798 2.23 2.952 2.61 3.03 3.008 3.03 3.406 3.03 3.79 2.952 4.158 2.798 4.526 2.643 4.851 2.425 5.131 2.146 5.411 1.865 5.629 1.54 5.784 1.172 5.938 .804 6.016 .412 6.016 0 6.016-.428 5.938-.822 5.784-1.184 5.629-1.545 5.411-1.858 5.131-2.123 4.851-2.389 4.526-2.599 4.158-2.754 3.79-2.909 3.406-2.986 3.008-2.986 2.61-2.986 2.23-2.909 1.869-2.754 1.507-2.599 1.187-2.389 .907-2.123 .626-1.858 .405-1.545 .243-1.184 .081-.822 0-.428 0 0M3.649-11.347C2.809-10.447 1.562-9.997-.088-9.997-1.71-9.997-2.942-10.447-3.782-11.347-4.8-12.423-5.308-14.053-5.308-16.234-5.308-18.181-4.792-19.685-3.76-20.746-2.816-21.72-1.6-22.206-.111-22.206 1.452-22.206 2.691-21.734 3.605-20.791 4.637-19.729 5.153-18.211 5.153-16.234 5.153-14.022 4.652-12.394 3.649-11.347M-7.078 0C-7.078 .412-6.997 .804-6.834 1.172-6.672 1.54-6.451 1.865-6.171 2.146-5.891 2.425-5.57 2.643-5.209 2.798-4.848 2.952-4.468 3.03-4.07 3.03-3.671 3.03-3.288 2.952-2.919 2.798-2.551 2.643-2.227 2.425-1.946 2.146-1.667 1.865-1.449 1.54-1.294 1.172-1.139 .804-1.062 .412-1.062 0-1.062-.428-1.139-.822-1.294-1.184-1.449-1.545-1.667-1.858-1.946-2.123-2.227-2.389-2.551-2.599-2.919-2.754-3.288-2.909-3.671-2.986-4.07-2.986-4.468-2.986-4.848-2.909-5.209-2.754-5.57-2.599-5.891-2.389-6.171-2.123-6.451-1.858-6.672-1.545-6.834-1.184-6.997-.822-7.078-.428-7.078 0M-11.523-22.206-9.112-24.617C-11.221-22.435-12.275-19.641-12.275-16.234-12.275-12.607-11.258-9.718-9.223-7.564-6.967-5.176-3.922-3.981-.088-3.981 3.774-3.981 6.827-5.169 9.068-7.542 11.103-9.695 12.121-12.593 12.121-16.234 12.121-19.685 11.059-22.494 8.936-24.661L11.391-22.206H13.89V-28.223H-14.022V-22.206Z" fill="#231f20"/>
<path transform="matrix(1,0,0,-1,339.4072,336.1938)" d="M0 0C-.841 .899-2.087 1.35-3.738 1.35-5.36 1.35-6.591 .899-7.432 0-8.449-1.076-8.958-2.706-8.958-4.888-8.958-6.834-8.442-8.338-7.41-9.399-6.466-10.373-5.25-10.859-3.76-10.859-2.197-10.859-.959-10.388-.044-9.444 .988-8.382 1.504-6.864 1.504-4.888 1.504-2.676 1.002-1.047 0 0M-3.76-16.876C-7.461-16.876-10.101-16.035-11.678-14.354-13.462-16.035-16.397-16.876-20.481-16.876V-10.859C-18.564-10.859-17.355-10.602-16.854-10.085-16.234-9.451-15.925-8.485-15.925-7.187V-4.888C-15.925-1.261-14.908 1.629-12.873 3.782-10.617 6.171-7.572 7.365-3.738 7.365 .125 7.365 3.177 6.178 5.419 3.805 7.454 1.651 8.471-1.246 8.471-4.888 8.471-8.338 7.409-11.147 5.286-13.314 5.286-13.3 6.104-12.481 7.741-10.859H10.196V-16.876Z" fill="#231f20"/>
<path transform="matrix(1,0,0,-1,352.3682,344.59809)" d="M0 0V20.193H6.967V0C6.967-.767 7.217-1.394 7.719-1.88 8.102-2.264 8.507-2.455 8.936-2.455H10.638V-8.472H8.936C6.37-8.472 4.475-8.015 3.251-7.1 2.336-8.015 .597-8.472-1.969-8.472H-3.871V-2.455H-1.969C-1.541-2.455-1.136-2.264-.752-1.88-.251-1.394 0-.767 0 0" fill="#231f20"/>
<path transform="matrix(1,0,0,-1,372.7383,324.4047)" d="M0 0V-20.193C0-22.449-.818-24.389-2.455-26.011-4.21-27.78-6.37-28.665-8.936-28.665H-10.837V-22.648H-8.936C-8.508-22.648-8.103-22.457-7.719-22.073-7.218-21.587-6.967-20.96-6.967-20.193V0Z" fill="#231f20"/>
<path transform="matrix(1,0,0,-1,408.4805,324.5375)" d="M0 0C0 .412 .081 .804 .243 1.172 .405 1.54 .627 1.865 .907 2.146 1.187 2.425 1.508 2.643 1.869 2.798 2.23 2.952 2.61 3.03 3.008 3.03 3.406 3.03 3.79 2.952 4.158 2.798 4.526 2.643 4.852 2.425 5.132 2.146 5.411 1.865 5.629 1.54 5.784 1.172 5.938 .804 6.017 .412 6.017 0 6.017-.428 5.938-.822 5.784-1.184 5.629-1.545 5.411-1.858 5.132-2.123 4.852-2.389 4.526-2.599 4.158-2.754 3.79-2.908 3.406-2.986 3.008-2.986 2.61-2.986 2.23-2.908 1.869-2.754 1.508-2.599 1.187-2.389 .907-2.123 .627-1.858 .405-1.545 .243-1.184 .081-.822 0-.428 0 0M3.495-11.501C3.392-11.089 3.273-10.853 3.141-10.794 2.389-10.47 1.504-10.307 .487-10.307H.421C-1.202-10.307-2.44-10.765-3.295-11.679-4.298-12.74-4.799-14.362-4.799-16.544-4.799-18.49-4.283-19.994-3.251-21.056-2.308-22.029-.575-22.516 1.946-22.516V-22.538H3.495ZM-7.077 0C-7.077 .412-6.996 .804-6.834 1.172-6.672 1.54-6.451 1.865-6.171 2.146-5.891 2.425-5.57 2.643-5.208 2.798-4.848 2.952-4.468 3.03-4.069 3.03-3.671 3.03-3.288 2.952-2.919 2.798-2.551 2.643-2.227 2.425-1.946 2.146-1.666 1.865-1.448 1.54-1.294 1.172-1.139 .804-1.062 .412-1.062 0-1.062-.428-1.139-.822-1.294-1.184-1.448-1.545-1.666-1.858-1.946-2.123-2.227-2.389-2.551-2.599-2.919-2.754-3.288-2.908-3.671-2.986-4.069-2.986-4.468-2.986-4.848-2.908-5.208-2.754-5.57-2.599-5.891-2.389-6.171-2.123-6.451-1.858-6.672-1.545-6.834-1.184-6.996-.822-7.077-.428-7.077 0M-8.604-24.927C-10.712-22.744-11.767-19.95-11.767-16.544-11.767-12.932-10.749-10.042-8.714-7.874-6.473-5.515-3.428-4.328 .421-4.313H.487C2.654-4.313 4.601-4.696 6.326-5.463 9.083-6.657 10.462-8.449 10.462-10.838V-23.799C10.462-24.964 10.344-25.93 10.108-26.696 9.769-28.701 8.435-30.736 6.104-32.801 3.774-34.864 .31-35.927-4.291-35.985-8.567-35.985-12.217-34.673-15.239-32.049-18.173-29.498-19.641-25.664-19.641-20.547H-13.337C-13.337-24.013-12.54-26.431-10.948-27.802-9.282-29.247-7.062-29.97-4.291-29.97-1.43-29.97 .833-29.255 2.5-27.824-2.027-28.458-5.729-27.492-8.604-24.927" fill="#231f20"/>
<path transform="matrix(1,0,0,-1,436.7686,353.0698)" d="M0 0C-1.888 .074-2.919 .162-3.096 .266-3.214-.397-3.737-1.6-4.666-3.339-5.183-4.298-5.86-5.286-6.701-6.303-7.468-7.217-8.685-8.441-10.351-9.975L-15.504-6.325C-13.705-4.674-12.511-3.486-11.921-2.765-11.316-2.042-10.859-1.393-10.55-.818-9.827 .523-9.466 2.043-9.466 3.738-9.466 4.019-9.48 4.328-9.51 4.667V20.26H-2.543V9.135C-2.47 8.132-2.167 7.358-1.637 6.812-1.12 6.282-.449 6.017 .376 6.017H1.615V0Z" fill="#231f20"/>
<path transform="matrix(1,0,0,-1,458.9531,327.5903)" d="M0 0C0 .413 .081 .804 .244 1.173 .405 1.541 .627 1.865 .907 2.146 1.187 2.426 1.508 2.644 1.869 2.798 2.23 2.953 2.61 3.03 3.009 3.03 3.406 3.03 3.79 2.953 4.158 2.798 4.527 2.644 4.852 2.426 5.132 2.146 5.411 1.865 5.629 1.541 5.784 1.173 5.939 .804 6.017 .413 6.017 0 6.017-.428 5.939-.822 5.784-1.183 5.629-1.545 5.411-1.857 5.132-2.123 4.852-2.389 4.527-2.599 4.158-2.753 3.79-2.908 3.406-2.985 3.009-2.985 2.61-2.985 2.23-2.908 1.869-2.753 1.508-2.599 1.187-2.389 .907-2.123 .627-1.857 .405-1.545 .244-1.183 .081-.822 0-.428 0 0M-3.604 6.613C-3.604 7.026-3.524 7.417-3.361 7.786-3.199 8.154-2.979 8.479-2.698 8.759-2.418 9.039-2.098 9.257-1.736 9.411-1.375 9.566-.995 9.644-.597 9.644-.198 9.644 .185 9.566 .554 9.411 .922 9.257 1.246 9.039 1.526 8.759 1.807 8.479 2.024 8.154 2.179 7.786 2.334 7.417 2.411 7.026 2.411 6.613 2.411 6.186 2.334 5.791 2.179 5.431 2.024 5.068 1.807 4.756 1.526 4.49 1.246 4.225 .922 4.015 .554 3.86 .185 3.705-.198 3.628-.597 3.628-.995 3.628-1.375 3.705-1.736 3.86-2.098 4.015-2.418 4.225-2.698 4.49-2.979 4.756-3.199 5.068-3.361 5.431-3.524 5.791-3.604 6.186-3.604 6.613M-7.077 0C-7.077 .413-6.996 .804-6.834 1.173-6.672 1.541-6.451 1.865-6.171 2.146-5.891 2.426-5.57 2.644-5.208 2.798-4.848 2.953-4.468 3.03-4.069 3.03-3.671 3.03-3.288 2.953-2.919 2.798-2.551 2.644-2.227 2.426-1.946 2.146-1.666 1.865-1.448 1.541-1.294 1.173-1.139 .804-1.062 .413-1.062 0-1.062-.428-1.139-.822-1.294-1.183-1.448-1.545-1.666-1.857-1.946-2.123-2.227-2.389-2.551-2.599-2.919-2.753-3.288-2.908-3.671-2.985-4.069-2.985-4.468-2.985-4.848-2.908-5.208-2.753-5.57-2.599-5.891-2.389-6.171-2.123-6.451-1.857-6.672-1.545-6.834-1.183-6.996-.822-7.077-.428-7.077 0M20.525-19.463V-25.479H18.822C15.8-25.479 13.661-24.815 12.408-23.488 11.14-24.815 8.973-25.479 5.906-25.479 2.883-25.479 .76-24.83-.464-23.532-1.776-24.83-3.966-25.479-7.033-25.479-10.056-25.479-12.18-24.83-13.403-23.532-14.716-24.83-16.905-25.479-19.972-25.479H-21.675V-19.463H-19.972C-19.087-19.463-18.387-19.205-17.871-18.688-17.252-18.055-16.941-17.089-16.941-15.791V-5.22H-9.975V-15.791C-9.975-17.074-9.665-18.033-9.046-18.667-8.53-19.197-7.859-19.463-7.033-19.463-6.148-19.463-5.455-19.205-4.954-18.688-4.32-18.04-4.003-17.074-4.003-15.791V-5.22H2.964V-15.791C2.964-17.074 3.273-18.033 3.894-18.667 4.409-19.197 5.08-19.463 5.906-19.463 6.79-19.463 7.483-19.205 7.985-18.688 8.604-18.055 8.914-17.089 8.914-15.791V-5.22H15.903V-16.212C15.962-17.273 16.265-18.092 16.81-18.667 17.326-19.197 17.997-19.463 18.822-19.463Z" fill="#231f20"/>
<path transform="matrix(1,0,0,-1,489.2109,324.4047)" d="M0 0V-20.193C0-22.449-.818-24.389-2.455-26.011-4.21-27.78-6.37-28.665-8.936-28.665H-10.838V-22.648H-8.936C-8.509-22.648-8.104-22.457-7.72-22.073-7.219-21.587-6.968-20.96-6.968-20.193V0Z" fill="#231f20"/>
<path transform="matrix(1,0,0,-1,0,595.276)" d="M501.044 243.666H494.07603V270.871H501.044Z" fill="#231f20"/>
<path transform="matrix(1,0,0,-1,535.9893,333.5834)" d="M0 0C0 .412 .081 .803 .243 1.172 .405 1.54 .627 1.865 .907 2.146 1.187 2.425 1.508 2.643 1.869 2.798 2.23 2.952 2.609 3.029 3.008 3.029 3.406 3.029 3.789 2.952 4.158 2.798 4.526 2.643 4.851 2.425 5.131 2.146 5.411 1.865 5.629 1.54 5.784 1.172 5.938 .803 6.016 .412 6.016 0 6.016-.429 5.938-.822 5.784-1.184 5.629-1.545 5.411-1.858 5.131-2.124 4.851-2.389 4.526-2.6 4.158-2.754 3.789-2.909 3.406-2.986 3.008-2.986 2.609-2.986 2.23-2.909 1.869-2.754 1.508-2.6 1.187-2.389 .907-2.124 .627-1.858 .405-1.545 .243-1.184 .081-.822 0-.429 0 0M-7.078 0C-7.078 .412-6.997 .803-6.834 1.172-6.673 1.54-6.451 1.865-6.171 2.146-5.891 2.425-5.57 2.643-5.209 2.798-4.848 2.952-4.468 3.029-4.069 3.029-3.672 3.029-3.288 2.952-2.92 2.798-2.551 2.643-2.227 2.425-1.946 2.146-1.667 1.865-1.449 1.54-1.294 1.172-1.139 .803-1.062 .412-1.062 0-1.062-.429-1.139-.822-1.294-1.184-1.449-1.545-1.667-1.858-1.946-2.124-2.227-2.389-2.551-2.6-2.92-2.754-3.288-2.909-3.672-2.986-4.069-2.986-4.468-2.986-4.848-2.909-5.209-2.754-5.57-2.6-5.891-2.389-6.171-2.124-6.451-1.858-6.673-1.545-6.834-1.184-6.997-.822-7.078-.429-7.078 0M-12.408-5.641C-12.497-6.112-12.541-6.65-12.541-7.255-12.541-9.438-12.04-11.059-11.037-12.121-10.182-13.021-8.943-13.47-7.321-13.47H4.954C6.576-13.47 7.814-13.021 8.67-12.121 9.673-11.059 10.174-9.438 10.174-7.255V.773H17.142V-7.255C17.142-10.867 16.124-13.758 14.089-15.925 11.848-18.299 8.803-19.486 4.954-19.486H-6.657C-10.506-19.486-13.551-18.299-15.792-15.925-17.827-13.758-18.845-10.867-18.845-7.255-18.845-6.385-18.771-5.53-18.623-4.689-18.476-3.834-18.056-2.604-17.362-.996L-11.347-2.699C-11.966-4.174-12.319-5.154-12.408-5.641" fill="#231f20"/>
<path transform="matrix(1,0,0,-1,564.9639,324.4047)" d="M0 0V-20.193C0-20.96 .25-21.587 .752-22.073 1.135-22.457 1.54-22.648 1.968-22.648H3.517V-28.665H1.968C-.598-28.665-2.758-27.78-4.513-26.011-6.149-24.389-6.968-22.449-6.968-20.193V0Z" fill="#231f20"/>
<path transform="matrix(1,0,0,-1,581.1104,324.6264)" d="M0 0C0 .413 .08 .804 .243 1.173 .405 1.541 .626 1.865 .906 2.146 1.187 2.426 1.507 2.644 1.868 2.798 2.229 2.953 2.609 3.03 3.008 3.03 3.405 3.03 3.789 2.953 4.157 2.798 4.526 2.644 4.851 2.426 5.131 2.146 5.411 1.865 5.629 1.541 5.783 1.173 5.938 .804 6.016 .413 6.016 0 6.016-.428 5.938-.822 5.783-1.183 5.629-1.545 5.411-1.857 5.131-2.123 4.851-2.389 4.526-2.599 4.157-2.753 3.789-2.908 3.405-2.985 3.008-2.985 2.609-2.985 2.229-2.908 1.868-2.753 1.507-2.599 1.187-2.389 .906-2.123 .626-1.857 .405-1.545 .243-1.183 .08-.822 0-.428 0 0M3.937-11.567C3.096-10.668 1.85-10.218 .198-10.218-1.424-10.218-2.654-10.668-3.495-11.567-4.513-12.644-5.021-14.273-5.021-16.455-5.021-18.401-4.505-19.905-3.473-20.967-2.529-21.94-1.313-22.427 .177-22.427 1.739-22.427 2.978-21.955 3.893-21.012 4.924-19.949 5.44-18.432 5.44-16.455 5.44-14.243 4.939-12.614 3.937-11.567M-7.078 0C-7.078 .413-6.997 .804-6.835 1.173-6.673 1.541-6.451 1.865-6.171 2.146-5.892 2.426-5.57 2.644-5.209 2.798-4.848 2.953-4.468 3.03-4.07 3.03-3.672 3.03-3.289 2.953-2.92 2.798-2.552 2.644-2.228 2.426-1.947 2.146-1.667 1.865-1.449 1.541-1.294 1.173-1.14 .804-1.062 .413-1.062 0-1.062-.428-1.14-.822-1.294-1.183-1.449-1.545-1.667-1.857-1.947-2.123-2.228-2.389-2.552-2.599-2.92-2.753-3.289-2.908-3.672-2.985-4.07-2.985-4.468-2.985-4.848-2.908-5.209-2.753-5.57-2.599-5.892-2.389-6.171-2.123-6.451-1.857-6.673-1.545-6.835-1.183-6.997-.822-7.078-.428-7.078 0M-11.236-22.427C-9.629-24.02-8.825-24.823-8.825-24.838-10.935-22.655-11.988-19.861-11.988-16.455-11.988-12.828-10.971-9.938-8.936-7.785-6.68-5.396-3.636-4.202 .198-4.202 4.062-4.202 7.114-5.39 9.355-7.763 11.391-9.916 12.407-12.813 12.407-16.455 12.407-19.905 11.346-22.715 9.223-24.882 6.923-27.256 3.907-28.443 .177-28.443H-13.735V-22.427Z" fill="#231f20"/>
<path transform="matrix(1,0,0,-1,0,595.276)" d="M605.352 243.666H598.384V270.871H605.352Z" fill="#231f20"/>
<path transform="matrix(1,0,0,-1,612.4512,324.3383)" d="M0 0C0 .412 .081 .803 .243 1.172 .405 1.54 .626 1.865 .906 2.146 1.187 2.425 1.507 2.643 1.869 2.798 2.229 2.952 2.609 3.03 3.008 3.03 3.406 3.03 3.789 2.952 4.158 2.798 4.526 2.643 4.851 2.425 5.131 2.146 5.411 1.865 5.629 1.54 5.783 1.172 5.938 .803 6.016 .412 6.016 0 6.016-.428 5.938-.822 5.783-1.184 5.629-1.545 5.411-1.858 5.131-2.124 4.851-2.389 4.526-2.6 4.158-2.754 3.789-2.909 3.406-2.986 3.008-2.986 2.609-2.986 2.229-2.909 1.869-2.754 1.507-2.6 1.187-2.389 .906-2.124 .626-1.858 .405-1.545 .243-1.184 .081-.822 0-.428 0 0M1.46-28.731C-.147-28.731-1.622-28.443-2.964-27.868L-4.689-27.116-2.123-20.68C-1.003-21.713-.236-22.316 .177-22.494 .516-22.642 .943-22.715 1.46-22.715L7.276-22.737 7.188-22.073C6.746-18.019 6.2-15.232 5.552-13.713 4.637-11.575 2.603-10.506-.553-10.506V-4.49C5.478-4.49 9.518-6.437 11.567-10.329 12.703-12.497 13.558-16.213 14.133-21.477L14.266-22.715H15.881V-28.731Z" fill="#231f20"/>
<path transform="matrix(1,0,0,-1,647.7061,336.1938)" d="M0 0C-.84 .899-2.086 1.35-3.737 1.35-5.359 1.35-6.591 .899-7.432 0-8.448-1.076-8.957-2.706-8.957-4.888-8.957-6.834-8.441-8.338-7.409-9.399-6.466-10.373-5.249-10.859-3.76-10.859-2.197-10.859-.958-10.388-.044-9.444 .988-8.382 1.504-6.864 1.504-4.888 1.504-2.676 1.003-1.047 0 0M-15.925-4.888C-15.925-1.261-14.907 1.629-12.872 3.782-10.616 6.171-7.571 7.365-3.737 7.365 .125 7.365 3.178 6.178 5.419 3.805 7.454 1.651 8.472-1.246 8.472-4.888 8.472-8.338 7.41-11.147 5.286-13.314 2.986-15.688-.029-16.876-3.76-16.876-7.461-16.876-10.101-16.035-11.678-14.354-13.462-16.035-16.396-16.876-20.48-16.876V-10.859C-18.564-10.859-17.354-10.602-16.854-10.085-16.234-9.451-15.925-8.485-15.925-7.187Z" fill="#231f20"/>
<path transform="matrix(1,0,0,-1,684.3555,324.3168)" d="M0 0C0 .413 .081 .804 .244 1.173 .406 1.541 .627 1.865 .907 2.146 1.187 2.426 1.508 2.644 1.869 2.798 2.23 2.953 2.61 3.03 3.009 3.03 3.406 3.03 3.79 2.953 4.158 2.798 4.527 2.644 4.852 2.426 5.132 2.146 5.412 1.865 5.63 1.541 5.784 1.173 5.939 .804 6.017 .413 6.017 0 6.017-.428 5.939-.822 5.784-1.183 5.63-1.545 5.412-1.857 5.132-2.123 4.852-2.389 4.527-2.599 4.158-2.753 3.79-2.908 3.406-2.985 3.009-2.985 2.61-2.985 2.23-2.908 1.869-2.753 1.508-2.599 1.187-2.389 .907-2.123 .627-1.857 .406-1.545 .244-1.183 .081-.822 0-.428 0 0M3.186-11.722C3.082-11.31 2.964-11.073 2.831-11.015 2.079-10.69 1.194-10.527 .178-10.527H.111C-1.511-10.527-2.75-10.985-3.604-11.899-4.607-12.961-5.108-14.583-5.108-16.765-5.108-19.463-4.283-21.284-2.632-22.228-2.131-22.522-1.585-22.685-.995-22.714-.892-22.729-.804-22.736-.729-22.736-.272-22.736 .178-22.648 .62-22.471 2.079-21.896 2.935-20.724 3.186-18.954ZM-7.077 0C-7.077 .413-6.996 .804-6.834 1.173-6.672 1.541-6.45 1.865-6.17 2.146-5.891 2.426-5.569 2.644-5.208 2.798-4.847 2.953-4.468 3.03-4.069 3.03-3.671 3.03-3.288 2.953-2.919 2.798-2.551 2.644-2.227 2.426-1.946 2.146-1.666 1.865-1.448 1.541-1.293 1.173-1.139 .804-1.062 .413-1.062 0-1.062-.428-1.139-.822-1.293-1.183-1.448-1.545-1.666-1.857-1.946-2.123-2.227-2.389-2.551-2.599-2.919-2.753-3.288-2.908-3.671-2.985-4.069-2.985-4.468-2.985-4.847-2.908-5.208-2.753-5.569-2.599-5.891-2.389-6.17-2.123-6.45-1.857-6.672-1.545-6.834-1.183-6.996-.822-7.077-.428-7.077 0M14.664-28.753C10.609-28.753 7.639-27.772 5.751-25.811 5.382-26.533 4.646-27.234 3.539-27.912 2.168-28.458 .737-28.73-.752-28.73-1.017-28.73-1.282-28.723-1.548-28.708-3.361-28.591-5.028-28.089-6.547-27.204-10.232-25.066-12.076-21.586-12.076-16.765-12.076-13.152-11.059-10.263-9.023-8.095-6.782-5.735-3.737-4.549 .111-4.534H.178C2.345-4.534 4.291-4.917 6.017-5.684 8.773-6.878 10.152-8.67 10.152-11.059V-19.064C10.152-20.348 10.462-21.307 11.081-21.94 11.598-22.471 12.792-22.736 14.664-22.736Z" fill="#231f20"/>
<path transform="matrix(1,0,0,-1,697.9141,347.05323)" d="M0 0H23.002C24.786 0 26.172 .332 27.16 .995 27.839 1.452 28.178 2.079 28.178 2.875 28.178 3.804 27.846 4.504 27.183 4.977 26.283 5.596 24.875 5.905 22.958 5.905H1.681L1.637 8.869V11.059C1.784 15.467 4.209 18.578 8.913 20.393 11.391 21.365 15.408 22.096 20.968 22.582 22.796 22.729 24.491 22.936 26.055 23.201L27.735 17.384C25.76 17.06 23.739 16.802 21.675 16.61 17.429 16.227 14.413 15.732 12.629 15.128 10.004 14.214 8.662 12.828 8.604 10.97L9.268 11.921H22.958C26.512 11.921 29.387 11.154 31.584 9.621 33.958 7.984 35.145 5.736 35.145 2.875 35.145 .147 33.921-2.05 31.474-3.716 29.231-5.25 26.408-6.017 23.002-6.017H0Z" fill="#231f20"/>
<path transform="matrix(1,0,0,-1,750.8848,353.0698)" d="M0 0C-1.888 .074-2.919 .162-3.096 .266-3.214-.397-3.737-1.6-4.666-3.339-5.183-4.298-5.86-5.286-6.701-6.303-7.468-7.217-8.685-8.441-10.351-9.975L-15.504-6.325C-13.705-4.674-12.511-3.486-11.921-2.765-11.316-2.042-10.859-1.393-10.55-.818-9.827 .523-9.466 2.043-9.466 3.738-9.466 4.019-9.48 4.328-9.51 4.667V20.26H-2.543V9.135C-2.47 8.132-2.167 7.358-1.637 6.812-1.12 6.282-.449 6.017 .376 6.017H1.615V0Z" fill="#231f20"/>
<path transform="matrix(1,0,0,-1,772.6934,327.5903)" d="M0 0C0 .413 .081 .804 .243 1.173 .405 1.541 .627 1.865 .907 2.146 1.187 2.426 1.508 2.644 1.869 2.798 2.23 2.953 2.61 3.03 3.009 3.03 3.406 3.03 3.79 2.953 4.158 2.798 4.527 2.644 4.852 2.426 5.132 2.146 5.411 1.865 5.629 1.541 5.784 1.173 5.938 .804 6.017 .413 6.017 0 6.017-.428 5.938-.822 5.784-1.183 5.629-1.545 5.411-1.857 5.132-2.123 4.852-2.389 4.527-2.599 4.158-2.753 3.79-2.908 3.406-2.985 3.009-2.985 2.61-2.985 2.23-2.908 1.869-2.753 1.508-2.599 1.187-2.389 .907-2.123 .627-1.857 .405-1.545 .243-1.183 .081-.822 0-.428 0 0M-3.604 6.613C-3.604 7.026-3.524 7.417-3.361 7.786-3.199 8.154-2.979 8.479-2.698 8.759-2.418 9.039-2.098 9.257-1.736 9.411-1.375 9.566-.995 9.644-.597 9.644-.198 9.644 .185 9.566 .554 9.411 .922 9.257 1.246 9.039 1.526 8.759 1.807 8.479 2.024 8.154 2.179 7.786 2.334 7.417 2.411 7.026 2.411 6.613 2.411 6.186 2.334 5.791 2.179 5.431 2.024 5.068 1.807 4.756 1.526 4.49 1.246 4.225 .922 4.015 .554 3.86 .185 3.705-.198 3.628-.597 3.628-.995 3.628-1.375 3.705-1.736 3.86-2.098 4.015-2.418 4.225-2.698 4.49-2.979 4.756-3.199 5.068-3.361 5.431-3.524 5.791-3.604 6.186-3.604 6.613M-7.077 0C-7.077 .413-6.996 .804-6.834 1.173-6.672 1.541-6.451 1.865-6.171 2.146-5.891 2.426-5.57 2.644-5.208 2.798-4.848 2.953-4.468 3.03-4.069 3.03-3.671 3.03-3.288 2.953-2.919 2.798-2.551 2.644-2.227 2.426-1.946 2.146-1.666 1.865-1.448 1.541-1.294 1.173-1.139 .804-1.062 .413-1.062 0-1.062-.428-1.139-.822-1.294-1.183-1.448-1.545-1.666-1.857-1.946-2.123-2.227-2.389-2.551-2.599-2.919-2.753-3.288-2.908-3.671-2.985-4.069-2.985-4.468-2.985-4.848-2.908-5.208-2.753-5.57-2.599-5.891-2.389-6.171-2.123-6.451-1.857-6.672-1.545-6.834-1.183-6.996-.822-7.077-.428-7.077 0M3.186-15.791C3.186-17.074 3.495-18.033 4.114-18.667 4.63-19.197 5.301-19.463 6.127-19.463 7.012-19.463 7.704-19.205 8.206-18.688 8.825-18.055 9.135-17.089 9.135-15.791V-5.22H16.124V-15.791C16.124-18.534 15.269-20.79 13.559-22.56 11.671-24.506 9.193-25.479 6.127-25.479 3.104-25.479 .98-24.83-.243-23.532-1.556-24.83-3.745-25.479-6.812-25.479-9.835-25.479-11.958-24.83-13.182-23.532-14.494-24.83-17.2-25.479-21.299-25.479V-19.463C-19.383-19.463-18.166-19.205-17.649-18.688-17.03-18.055-16.721-17.089-16.721-15.791V-5.22H-9.754V-15.791C-9.754-17.074-9.444-18.033-8.824-18.667-8.309-19.197-7.638-19.463-6.812-19.463-5.927-19.463-5.234-19.205-4.732-18.688-4.099-18.04-3.782-17.074-3.782-15.791V-5.22H3.186Z" fill="#231f20"/>
<path transform="matrix(1,0,0,-1,489.6698,152.90039)" d="M0 0H-20.801-25.696C-29.3 0-32.843-2.522-33.609-5.633L-36.038-15.49-39.334-28.867-40.722-34.5H-34.196-13.394-8.5C-4.896-34.5-1.353-31.978-.586-28.867L1.842-19.01 5.138-5.633 6.526 0Z" fill="#231f20"/>
<path transform="matrix(1,0,0,-1,385.6176,234.17609)" d="M0 0H-20.393-25.191C-28.725 0-32.198-2.699-32.95-6.029L-35.33-16.579-38.562-30.897-39.922-36.925H-33.524-13.131-8.333C-4.8-36.925-1.326-34.226-.575-30.897L1.806-20.347 5.037-6.029 6.398 0Z" fill="#be1e2d"/>
<path transform="matrix(1,0,0,-1,445.6457,153.7424)" d="M0 0H-64.431C-68.848 0-73.31-3.58-74.398-7.997L-89.259-68.316C-90.348-72.732-87.649-76.312-83.233-76.312H-52.845L-51.83-72.191-47.441-54.378-43.503-38.394C-42.942-36.117-40.642-34.272-38.366-34.272H-22.381-4.569-.447L6.027-7.997C7.115-3.58 4.417 0 0 0" fill="#be1e2d"/>
<path transform="matrix(1,0,0,-1,395.5097,269.3899)" d="M0 0H64.431C68.848 0 73.31 3.58 74.398 7.997L89.259 68.316C90.348 72.732 87.649 76.312 83.233 76.312H52.845L51.83 72.191 47.441 54.378 43.503 38.394C42.942 36.117 40.642 34.272 38.366 34.272H22.381 4.569 .447L-6.027 7.997C-7.115 3.58-4.417 0 0 0" fill="#be1e2d"/>
</g>
</g>
</svg>
